<svg xmlns="http://www.w3.org/2000/svg" width="850" height="200" viewBox="0 0 850 200">
  <!-- Brain Icon with Lightning -->
  <g transform="translate(50, 35) scale(0.55)">
    <path d="M150 30C90 30 40 80 40 140C40 200 90 250 150 250C210 250 260 200 260 140C260 80 210 30 150 30ZM150 230C100 230 60 190 60 140C60 90 100 50 150 50C200 50 240 90 240 140C240 190 200 230 150 230Z" fill="#3B4BF6"/>
    <path d="M150 70C115 70 85 100 85 135C85 170 115 200 150 200C185 200 215 170 215 135C215 100 185 70 150 70ZM150 180C125 180 105 160 105 135C105 110 125 90 150 90C175 90 195 110 195 135C195 160 175 180 150 180Z" fill="#3B4BF6"/>
    <path d="M200 90L147 166L132 152L125 185L187 135L200 149L200 90Z" fill="#F97316"/>
  </g>
  
  <!-- ThinkForge Text -->
  <text x="250" y="135" font-family="Arial, sans-serif" font-size="100" font-weight="bold">
    <tspan fill="#3B4BF6">Think</tspan><tspan fill="#F97316">Forge</tspan>
  </text>
  
  <!-- Natural Language Cache Framework Text -->
  <text x="250" y="180" font-family="Arial, sans-serif" font-size="40" font-weight="500" fill="#94A3B8">
    Natural Language Cache Framework
  </text>
</svg> 